<mxfile host="app.diagrams.net" modified="2023-09-22T21:41:26.305Z" agent="Mozilla/5.0 (Windows NT 10.0; Win64; x64) AppleWebKit/537.36 (KHTML, like Gecko) Chrome/117.0.0.0 Safari/537.36" etag="siJOnTBxIJJKo6ZjDaWs" version="21.8.1" type="github">
  <diagram id="C5RBs43oDa-KdzZeNtuy" name="Page-1">
    <mxGraphModel dx="969" dy="532" grid="1" gridSize="10" guides="1" tooltips="1" connect="1" arrows="1" fold="1" page="1" pageScale="1" pageWidth="827" pageHeight="1169" math="0" shadow="0">
      <root>
        <mxCell id="WIyWlLk6GJQsqaUBKTNV-0" />
        <mxCell id="WIyWlLk6GJQsqaUBKTNV-1" parent="WIyWlLk6GJQsqaUBKTNV-0" />
        <mxCell id="WIyWlLk6GJQsqaUBKTNV-3" value="RH realiza contratações" style="rounded=1;whiteSpace=wrap;html=1;fontSize=12;glass=0;strokeWidth=1;shadow=0;fillColor=#dae8fc;strokeColor=#6c8ebf;" parent="WIyWlLk6GJQsqaUBKTNV-1" vertex="1">
          <mxGeometry x="135" y="79" width="90" height="30" as="geometry" />
        </mxCell>
        <mxCell id="1b1cODs86aIuLIPEe_Xc-0" value="No sistema Qulture" style="swimlane;fontStyle=0;childLayout=stackLayout;horizontal=1;startSize=30;horizontalStack=0;resizeParent=1;resizeParentMax=0;resizeLast=0;collapsible=1;marginBottom=0;whiteSpace=wrap;html=1;fillColor=#dae8fc;strokeColor=#6c8ebf;" vertex="1" parent="WIyWlLk6GJQsqaUBKTNV-1">
          <mxGeometry x="249" y="79" width="86" height="90" as="geometry" />
        </mxCell>
        <mxCell id="1b1cODs86aIuLIPEe_Xc-1" value="&lt;font style=&quot;font-size: 10px;&quot;&gt;Data de início&lt;/font&gt;" style="text;strokeColor=none;fillColor=none;align=left;verticalAlign=middle;spacingLeft=4;spacingRight=4;overflow=hidden;points=[[0,0.5],[1,0.5]];portConstraint=eastwest;rotatable=0;whiteSpace=wrap;html=1;" vertex="1" parent="1b1cODs86aIuLIPEe_Xc-0">
          <mxGeometry y="30" width="86" height="20" as="geometry" />
        </mxCell>
        <mxCell id="1b1cODs86aIuLIPEe_Xc-2" value="&lt;font style=&quot;font-size: 10px;&quot;&gt;Cargo&lt;/font&gt;" style="text;strokeColor=none;fillColor=none;align=left;verticalAlign=middle;spacingLeft=4;spacingRight=4;overflow=hidden;points=[[0,0.5],[1,0.5]];portConstraint=eastwest;rotatable=0;whiteSpace=wrap;html=1;" vertex="1" parent="1b1cODs86aIuLIPEe_Xc-0">
          <mxGeometry y="50" width="86" height="20" as="geometry" />
        </mxCell>
        <mxCell id="1b1cODs86aIuLIPEe_Xc-3" value="&lt;font style=&quot;font-size: 9px;&quot;&gt;CPF&lt;/font&gt;" style="text;strokeColor=none;fillColor=none;align=left;verticalAlign=middle;spacingLeft=4;spacingRight=4;overflow=hidden;points=[[0,0.5],[1,0.5]];portConstraint=eastwest;rotatable=0;whiteSpace=wrap;html=1;" vertex="1" parent="1b1cODs86aIuLIPEe_Xc-0">
          <mxGeometry y="70" width="86" height="20" as="geometry" />
        </mxCell>
        <mxCell id="1b1cODs86aIuLIPEe_Xc-28" value="" style="edgeStyle=orthogonalEdgeStyle;rounded=0;orthogonalLoop=1;jettySize=auto;html=1;labelBackgroundColor=none;endArrow=block;endFill=0;endSize=8;strokeWidth=1;shadow=0;" edge="1" parent="WIyWlLk6GJQsqaUBKTNV-1" source="1b1cODs86aIuLIPEe_Xc-4" target="1b1cODs86aIuLIPEe_Xc-3">
          <mxGeometry relative="1" as="geometry">
            <Array as="points">
              <mxPoint x="177" y="160" />
              <mxPoint x="228" y="160" />
              <mxPoint x="228" y="159" />
            </Array>
          </mxGeometry>
        </mxCell>
        <mxCell id="1b1cODs86aIuLIPEe_Xc-44" style="edgeStyle=orthogonalEdgeStyle;rounded=0;orthogonalLoop=1;jettySize=auto;html=1;exitX=0;exitY=0.75;exitDx=0;exitDy=0;" edge="1" parent="WIyWlLk6GJQsqaUBKTNV-1" source="1b1cODs86aIuLIPEe_Xc-4">
          <mxGeometry relative="1" as="geometry">
            <mxPoint x="150" y="98" as="targetPoint" />
          </mxGeometry>
        </mxCell>
        <mxCell id="1b1cODs86aIuLIPEe_Xc-4" value="Contratação finalizada" style="text;html=1;strokeColor=none;fillColor=none;align=center;verticalAlign=middle;whiteSpace=wrap;rounded=0;" vertex="1" parent="WIyWlLk6GJQsqaUBKTNV-1">
          <mxGeometry x="147" y="114" width="60" height="30" as="geometry" />
        </mxCell>
        <mxCell id="1b1cODs86aIuLIPEe_Xc-24" value="" style="edgeStyle=orthogonalEdgeStyle;rounded=0;orthogonalLoop=1;jettySize=auto;html=1;labelBackgroundColor=none;endArrow=block;endFill=0;endSize=8;strokeWidth=1;shadow=0;" edge="1" parent="WIyWlLk6GJQsqaUBKTNV-1" source="1b1cODs86aIuLIPEe_Xc-6" target="1b1cODs86aIuLIPEe_Xc-23">
          <mxGeometry relative="1" as="geometry" />
        </mxCell>
        <mxCell id="1b1cODs86aIuLIPEe_Xc-25" value="Sim" style="edgeLabel;html=1;align=center;verticalAlign=middle;resizable=0;points=[];" vertex="1" connectable="0" parent="1b1cODs86aIuLIPEe_Xc-24">
          <mxGeometry x="0.0596" y="7" relative="1" as="geometry">
            <mxPoint x="6" y="1" as="offset" />
          </mxGeometry>
        </mxCell>
        <mxCell id="1b1cODs86aIuLIPEe_Xc-6" value="Robô processa dados ?" style="rounded=1;whiteSpace=wrap;html=1;fillColor=#f5f5f5;strokeColor=#666666;fontStyle=0;startSize=30;fontColor=#333333;" vertex="1" parent="WIyWlLk6GJQsqaUBKTNV-1">
          <mxGeometry x="414" y="84.5" width="107" height="45" as="geometry" />
        </mxCell>
        <mxCell id="1b1cODs86aIuLIPEe_Xc-14" value="Não" style="rounded=0;html=1;jettySize=auto;orthogonalLoop=1;fontSize=11;endArrow=block;endFill=0;endSize=8;strokeWidth=1;shadow=0;labelBackgroundColor=none;edgeStyle=orthogonalEdgeStyle;exitX=1;exitY=0.25;exitDx=0;exitDy=0;" edge="1" parent="WIyWlLk6GJQsqaUBKTNV-1" source="1b1cODs86aIuLIPEe_Xc-6">
          <mxGeometry x="-0.0686" y="-18" relative="1" as="geometry">
            <mxPoint as="offset" />
            <mxPoint x="580" y="75" as="sourcePoint" />
            <mxPoint x="710" y="155" as="targetPoint" />
          </mxGeometry>
        </mxCell>
        <mxCell id="1b1cODs86aIuLIPEe_Xc-17" value="" style="edgeStyle=orthogonalEdgeStyle;rounded=0;orthogonalLoop=1;jettySize=auto;html=1;labelBackgroundColor=none;endArrow=block;endFill=0;endSize=8;strokeWidth=1;shadow=0;" edge="1" parent="WIyWlLk6GJQsqaUBKTNV-1" source="1b1cODs86aIuLIPEe_Xc-15" target="1b1cODs86aIuLIPEe_Xc-16">
          <mxGeometry relative="1" as="geometry" />
        </mxCell>
        <mxCell id="1b1cODs86aIuLIPEe_Xc-15" value="Financeiro não recebe dados" style="rounded=1;whiteSpace=wrap;html=1;fontSize=12;glass=0;strokeWidth=1;shadow=0;" vertex="1" parent="WIyWlLk6GJQsqaUBKTNV-1">
          <mxGeometry x="650" y="155" width="120" height="40" as="geometry" />
        </mxCell>
        <mxCell id="1b1cODs86aIuLIPEe_Xc-19" value="" style="edgeStyle=orthogonalEdgeStyle;rounded=0;orthogonalLoop=1;jettySize=auto;html=1;labelBackgroundColor=none;endArrow=block;endFill=0;endSize=8;strokeWidth=1;shadow=0;" edge="1" parent="WIyWlLk6GJQsqaUBKTNV-1" source="1b1cODs86aIuLIPEe_Xc-16" target="1b1cODs86aIuLIPEe_Xc-18">
          <mxGeometry relative="1" as="geometry" />
        </mxCell>
        <mxCell id="1b1cODs86aIuLIPEe_Xc-51" value="" style="edgeStyle=orthogonalEdgeStyle;rounded=0;orthogonalLoop=1;jettySize=auto;html=1;labelBackgroundColor=none;endArrow=block;endFill=0;endSize=8;strokeWidth=1;shadow=0;" edge="1" parent="WIyWlLk6GJQsqaUBKTNV-1" source="1b1cODs86aIuLIPEe_Xc-16" target="1b1cODs86aIuLIPEe_Xc-50">
          <mxGeometry relative="1" as="geometry" />
        </mxCell>
        <mxCell id="1b1cODs86aIuLIPEe_Xc-16" value="Financeiro envia dados manualmente" style="rounded=1;whiteSpace=wrap;html=1;fontSize=12;glass=0;strokeWidth=1;shadow=0;" vertex="1" parent="WIyWlLk6GJQsqaUBKTNV-1">
          <mxGeometry x="650" y="278" width="120" height="40" as="geometry" />
        </mxCell>
        <mxCell id="1b1cODs86aIuLIPEe_Xc-21" value="" style="edgeStyle=orthogonalEdgeStyle;rounded=0;orthogonalLoop=1;jettySize=auto;html=1;labelBackgroundColor=none;endArrow=block;endFill=0;endSize=8;strokeWidth=1;shadow=0;" edge="1" parent="WIyWlLk6GJQsqaUBKTNV-1" source="1b1cODs86aIuLIPEe_Xc-18" target="1b1cODs86aIuLIPEe_Xc-20">
          <mxGeometry relative="1" as="geometry" />
        </mxCell>
        <mxCell id="1b1cODs86aIuLIPEe_Xc-18" value="Financeiro registra dados por pessoa" style="rounded=1;whiteSpace=wrap;html=1;fontSize=12;glass=0;strokeWidth=1;shadow=0;" vertex="1" parent="WIyWlLk6GJQsqaUBKTNV-1">
          <mxGeometry x="650" y="360" width="120" height="40" as="geometry" />
        </mxCell>
        <mxCell id="1b1cODs86aIuLIPEe_Xc-60" value="" style="edgeStyle=orthogonalEdgeStyle;rounded=0;orthogonalLoop=1;jettySize=auto;html=1;entryX=0;entryY=0.5;entryDx=0;entryDy=0;labelBackgroundColor=none;endArrow=block;endFill=0;endSize=8;strokeWidth=1;shadow=0;" edge="1" parent="WIyWlLk6GJQsqaUBKTNV-1" source="1b1cODs86aIuLIPEe_Xc-20" target="1b1cODs86aIuLIPEe_Xc-55">
          <mxGeometry relative="1" as="geometry">
            <mxPoint x="53" y="510" as="targetPoint" />
            <Array as="points">
              <mxPoint x="53" y="458" />
              <mxPoint x="142" y="458" />
            </Array>
          </mxGeometry>
        </mxCell>
        <mxCell id="1b1cODs86aIuLIPEe_Xc-20" value="&lt;b&gt;Faturamento&lt;/b&gt;" style="ellipse;whiteSpace=wrap;html=1;rounded=1;glass=0;strokeWidth=1;shadow=0;" vertex="1" parent="WIyWlLk6GJQsqaUBKTNV-1">
          <mxGeometry x="13" y="340" width="80" height="80" as="geometry" />
        </mxCell>
        <mxCell id="1b1cODs86aIuLIPEe_Xc-23" value="Email enviado para corretor" style="rounded=1;whiteSpace=wrap;html=1;fillColor=#f5f5f5;strokeColor=#666666;fontStyle=0;startSize=30;fontColor=#333333;" vertex="1" parent="WIyWlLk6GJQsqaUBKTNV-1">
          <mxGeometry x="414" y="197.5" width="107" height="45" as="geometry" />
        </mxCell>
        <mxCell id="1b1cODs86aIuLIPEe_Xc-29" style="edgeStyle=orthogonalEdgeStyle;rounded=0;orthogonalLoop=1;jettySize=auto;html=1;entryX=0.588;entryY=-0.029;entryDx=0;entryDy=0;entryPerimeter=0;labelBackgroundColor=none;endArrow=block;endFill=0;endSize=8;strokeWidth=1;shadow=0;" edge="1" parent="WIyWlLk6GJQsqaUBKTNV-1" source="1b1cODs86aIuLIPEe_Xc-23" target="1b1cODs86aIuLIPEe_Xc-20">
          <mxGeometry relative="1" as="geometry" />
        </mxCell>
        <mxCell id="1b1cODs86aIuLIPEe_Xc-36" style="edgeStyle=orthogonalEdgeStyle;rounded=0;orthogonalLoop=1;jettySize=auto;html=1;" edge="1" parent="WIyWlLk6GJQsqaUBKTNV-1" source="1b1cODs86aIuLIPEe_Xc-31" target="1b1cODs86aIuLIPEe_Xc-37">
          <mxGeometry relative="1" as="geometry">
            <mxPoint x="430" y="25" as="targetPoint" />
          </mxGeometry>
        </mxCell>
        <mxCell id="1b1cODs86aIuLIPEe_Xc-31" value="Gente" style="text;strokeColor=#d6b656;fillColor=#fff2cc;align=left;verticalAlign=middle;spacingLeft=4;spacingRight=4;overflow=hidden;points=[[0,0.5],[1,0.5]];portConstraint=eastwest;rotatable=0;whiteSpace=wrap;html=1;" vertex="1" parent="WIyWlLk6GJQsqaUBKTNV-1">
          <mxGeometry x="140" y="10" width="80" height="30" as="geometry" />
        </mxCell>
        <mxCell id="1b1cODs86aIuLIPEe_Xc-39" value="" style="edgeStyle=orthogonalEdgeStyle;rounded=0;orthogonalLoop=1;jettySize=auto;html=1;" edge="1" parent="WIyWlLk6GJQsqaUBKTNV-1" source="1b1cODs86aIuLIPEe_Xc-37" target="1b1cODs86aIuLIPEe_Xc-38">
          <mxGeometry relative="1" as="geometry" />
        </mxCell>
        <mxCell id="1b1cODs86aIuLIPEe_Xc-37" value="Tech" style="text;html=1;strokeColor=#d6b656;fillColor=#fff2cc;align=center;verticalAlign=middle;whiteSpace=wrap;rounded=0;" vertex="1" parent="WIyWlLk6GJQsqaUBKTNV-1">
          <mxGeometry x="437.5" y="10" width="60" height="30" as="geometry" />
        </mxCell>
        <mxCell id="1b1cODs86aIuLIPEe_Xc-38" value="Financeiro" style="text;html=1;strokeColor=#d6b656;fillColor=#fff2cc;align=center;verticalAlign=middle;whiteSpace=wrap;rounded=0;" vertex="1" parent="WIyWlLk6GJQsqaUBKTNV-1">
          <mxGeometry x="680" y="10" width="60" height="30" as="geometry" />
        </mxCell>
        <mxCell id="1b1cODs86aIuLIPEe_Xc-40" value="Bematize" style="text;html=1;strokeColor=#d6b656;fillColor=#fff2cc;align=center;verticalAlign=middle;whiteSpace=wrap;rounded=0;" vertex="1" parent="WIyWlLk6GJQsqaUBKTNV-1">
          <mxGeometry x="33" y="10" width="60" height="30" as="geometry" />
        </mxCell>
        <mxCell id="1b1cODs86aIuLIPEe_Xc-43" value="" style="endArrow=none;dashed=1;html=1;dashPattern=1 3;strokeWidth=2;rounded=0;exitX=1;exitY=0.5;exitDx=0;exitDy=0;entryX=0;entryY=0.5;entryDx=0;entryDy=0;" edge="1" parent="WIyWlLk6GJQsqaUBKTNV-1" source="1b1cODs86aIuLIPEe_Xc-40" target="1b1cODs86aIuLIPEe_Xc-31">
          <mxGeometry width="50" height="50" relative="1" as="geometry">
            <mxPoint x="90" y="40" as="sourcePoint" />
            <mxPoint x="140" y="-10" as="targetPoint" />
          </mxGeometry>
        </mxCell>
        <mxCell id="1b1cODs86aIuLIPEe_Xc-45" value="" style="endArrow=none;html=1;rounded=0;dashed=1;dashPattern=1 1;" edge="1" parent="WIyWlLk6GJQsqaUBKTNV-1">
          <mxGeometry width="50" height="50" relative="1" as="geometry">
            <mxPoint x="120" y="490" as="sourcePoint" />
            <mxPoint x="120" as="targetPoint" />
          </mxGeometry>
        </mxCell>
        <mxCell id="1b1cODs86aIuLIPEe_Xc-46" value="" style="endArrow=none;html=1;rounded=0;dashed=1;dashPattern=1 1;" edge="1" parent="WIyWlLk6GJQsqaUBKTNV-1">
          <mxGeometry width="50" height="50" relative="1" as="geometry">
            <mxPoint x="361" y="490" as="sourcePoint" />
            <mxPoint x="361" as="targetPoint" />
          </mxGeometry>
        </mxCell>
        <mxCell id="1b1cODs86aIuLIPEe_Xc-47" value="" style="endArrow=none;html=1;rounded=0;dashed=1;dashPattern=1 1;" edge="1" parent="WIyWlLk6GJQsqaUBKTNV-1">
          <mxGeometry width="50" height="50" relative="1" as="geometry">
            <mxPoint x="560" y="490" as="sourcePoint" />
            <mxPoint x="560" as="targetPoint" />
          </mxGeometry>
        </mxCell>
        <mxCell id="1b1cODs86aIuLIPEe_Xc-48" value="" style="endArrow=none;html=1;rounded=0;dashed=1;dashPattern=1 1;" edge="1" parent="WIyWlLk6GJQsqaUBKTNV-1">
          <mxGeometry width="50" height="50" relative="1" as="geometry">
            <mxPoint x="800" y="490" as="sourcePoint" />
            <mxPoint x="800" as="targetPoint" />
          </mxGeometry>
        </mxCell>
        <mxCell id="1b1cODs86aIuLIPEe_Xc-50" value="&amp;nbsp;Registro de problema (Jira)" style="rounded=1;whiteSpace=wrap;html=1;fontSize=12;glass=0;strokeWidth=1;shadow=0;fillColor=#f5f5f5;fontColor=#333333;strokeColor=#666666;" vertex="1" parent="WIyWlLk6GJQsqaUBKTNV-1">
          <mxGeometry x="401" y="278" width="120" height="40" as="geometry" />
        </mxCell>
        <mxCell id="1b1cODs86aIuLIPEe_Xc-58" value="" style="edgeStyle=orthogonalEdgeStyle;rounded=0;orthogonalLoop=1;jettySize=auto;html=1;labelBackgroundColor=none;endArrow=block;endFill=0;endSize=8;strokeWidth=1;shadow=0;" edge="1" parent="WIyWlLk6GJQsqaUBKTNV-1" source="1b1cODs86aIuLIPEe_Xc-55" target="1b1cODs86aIuLIPEe_Xc-57">
          <mxGeometry relative="1" as="geometry" />
        </mxCell>
        <mxCell id="1b1cODs86aIuLIPEe_Xc-55" value="&amp;nbsp;Rh analisa dados e autoriza faturamento" style="rounded=1;whiteSpace=wrap;html=1;fillColor=#dae8fc;strokeColor=#6c8ebf;" vertex="1" parent="WIyWlLk6GJQsqaUBKTNV-1">
          <mxGeometry x="190" y="435" width="100" height="45" as="geometry" />
        </mxCell>
        <mxCell id="1b1cODs86aIuLIPEe_Xc-57" value="Fluxo de pagamentos" style="rounded=1;whiteSpace=wrap;html=1;fillColor=#dae8fc;strokeColor=#6c8ebf;" vertex="1" parent="WIyWlLk6GJQsqaUBKTNV-1">
          <mxGeometry x="650" y="435" width="100" height="45" as="geometry" />
        </mxCell>
        <mxCell id="1b1cODs86aIuLIPEe_Xc-61" style="edgeStyle=orthogonalEdgeStyle;rounded=0;orthogonalLoop=1;jettySize=auto;html=1;entryX=0;entryY=0.75;entryDx=0;entryDy=0;labelBackgroundColor=none;endArrow=block;endFill=0;endSize=8;strokeWidth=1;shadow=0;" edge="1" parent="WIyWlLk6GJQsqaUBKTNV-1" source="1b1cODs86aIuLIPEe_Xc-1" target="1b1cODs86aIuLIPEe_Xc-6">
          <mxGeometry relative="1" as="geometry" />
        </mxCell>
      </root>
    </mxGraphModel>
  </diagram>
</mxfile>
